<mxfile host="Electron" modified="2025-01-15T12:29:44.123Z" agent="Mozilla/5.0 (Macintosh; Intel Mac OS X 10_15_7) AppleWebKit/537.36 (KHTML, like Gecko) draw.io/21.6.5 Chrome/114.0.5735.243 Electron/25.3.1 Safari/537.36" etag="aqi8brTu3yiNE2jjzejF" version="21.6.5" type="device">
  <diagram name="Seite-1" id="U9vqe6QqmbevlCvUpsW0">
    <mxGraphModel dx="548" dy="396" grid="1" gridSize="10" guides="1" tooltips="1" connect="1" arrows="1" fold="1" page="1" pageScale="1" pageWidth="1169" pageHeight="827" math="0" shadow="0">
      <root>
        <mxCell id="0" />
        <mxCell id="1" parent="0" />
        <mxCell id="8h9LGkuF7svZAyMcBiQ8-26" style="edgeStyle=orthogonalEdgeStyle;rounded=0;orthogonalLoop=1;jettySize=auto;html=1;entryX=0;entryY=0.25;entryDx=0;entryDy=0;" edge="1" parent="1" source="8h9LGkuF7svZAyMcBiQ8-23" target="8h9LGkuF7svZAyMcBiQ8-24">
          <mxGeometry relative="1" as="geometry" />
        </mxCell>
        <mxCell id="8h9LGkuF7svZAyMcBiQ8-28" value="Messungsdaten&lt;br&gt;alle 10 minuten" style="edgeLabel;html=1;align=center;verticalAlign=middle;resizable=0;points=[];" vertex="1" connectable="0" parent="8h9LGkuF7svZAyMcBiQ8-26">
          <mxGeometry x="-0.3089" relative="1" as="geometry">
            <mxPoint x="-5" y="-22" as="offset" />
          </mxGeometry>
        </mxCell>
        <mxCell id="8h9LGkuF7svZAyMcBiQ8-23" value="Mülleimer" style="rounded=1;whiteSpace=wrap;html=1;" vertex="1" parent="1">
          <mxGeometry x="360" y="80" width="80" height="80" as="geometry" />
        </mxCell>
        <mxCell id="8h9LGkuF7svZAyMcBiQ8-30" style="edgeStyle=orthogonalEdgeStyle;rounded=0;orthogonalLoop=1;jettySize=auto;html=1;entryX=0;entryY=0.5;entryDx=0;entryDy=0;" edge="1" parent="1" source="8h9LGkuF7svZAyMcBiQ8-24" target="8h9LGkuF7svZAyMcBiQ8-29">
          <mxGeometry relative="1" as="geometry" />
        </mxCell>
        <mxCell id="8h9LGkuF7svZAyMcBiQ8-31" value="Daten aggregrieren&lt;br&gt;und aufbereiten" style="edgeLabel;html=1;align=center;verticalAlign=middle;resizable=0;points=[];" vertex="1" connectable="0" parent="8h9LGkuF7svZAyMcBiQ8-30">
          <mxGeometry x="-0.0023" y="-1" relative="1" as="geometry">
            <mxPoint x="5" y="-21" as="offset" />
          </mxGeometry>
        </mxCell>
        <mxCell id="8h9LGkuF7svZAyMcBiQ8-27" style="edgeStyle=orthogonalEdgeStyle;rounded=0;orthogonalLoop=1;jettySize=auto;html=1;entryX=0;entryY=0.75;entryDx=0;entryDy=0;" edge="1" parent="1" source="8h9LGkuF7svZAyMcBiQ8-25" target="8h9LGkuF7svZAyMcBiQ8-24">
          <mxGeometry relative="1" as="geometry" />
        </mxCell>
        <mxCell id="8h9LGkuF7svZAyMcBiQ8-25" value="Mülleimer" style="rounded=1;whiteSpace=wrap;html=1;" vertex="1" parent="1">
          <mxGeometry x="360" y="200" width="80" height="80" as="geometry" />
        </mxCell>
        <mxCell id="8h9LGkuF7svZAyMcBiQ8-29" value="Frontend" style="rounded=1;whiteSpace=wrap;html=1;" vertex="1" parent="1">
          <mxGeometry x="780" y="150" width="120" height="60" as="geometry" />
        </mxCell>
        <mxCell id="8h9LGkuF7svZAyMcBiQ8-35" value="" style="swimlane;startSize=0;" vertex="1" parent="1">
          <mxGeometry x="470" y="130" width="200" height="200" as="geometry" />
        </mxCell>
        <mxCell id="8h9LGkuF7svZAyMcBiQ8-24" value="Rechnen und so" style="rounded=1;whiteSpace=wrap;html=1;" vertex="1" parent="8h9LGkuF7svZAyMcBiQ8-35">
          <mxGeometry x="60" y="20" width="120" height="60" as="geometry" />
        </mxCell>
        <mxCell id="8h9LGkuF7svZAyMcBiQ8-32" value="Datenbank" style="rounded=1;whiteSpace=wrap;html=1;" vertex="1" parent="8h9LGkuF7svZAyMcBiQ8-35">
          <mxGeometry x="60" y="110" width="120" height="60" as="geometry" />
        </mxCell>
        <mxCell id="8h9LGkuF7svZAyMcBiQ8-33" style="edgeStyle=orthogonalEdgeStyle;rounded=0;orthogonalLoop=1;jettySize=auto;html=1;exitX=0.25;exitY=0;exitDx=0;exitDy=0;entryX=0.25;entryY=1;entryDx=0;entryDy=0;" edge="1" parent="8h9LGkuF7svZAyMcBiQ8-35" source="8h9LGkuF7svZAyMcBiQ8-32" target="8h9LGkuF7svZAyMcBiQ8-24">
          <mxGeometry relative="1" as="geometry" />
        </mxCell>
        <mxCell id="8h9LGkuF7svZAyMcBiQ8-34" style="edgeStyle=orthogonalEdgeStyle;rounded=0;orthogonalLoop=1;jettySize=auto;html=1;exitX=0.75;exitY=1;exitDx=0;exitDy=0;entryX=0.75;entryY=0;entryDx=0;entryDy=0;" edge="1" parent="8h9LGkuF7svZAyMcBiQ8-35" source="8h9LGkuF7svZAyMcBiQ8-24" target="8h9LGkuF7svZAyMcBiQ8-32">
          <mxGeometry relative="1" as="geometry" />
        </mxCell>
        <mxCell id="8h9LGkuF7svZAyMcBiQ8-36" value="Backend" style="text;html=1;align=center;verticalAlign=middle;resizable=0;points=[];autosize=1;strokeColor=none;fillColor=none;" vertex="1" parent="8h9LGkuF7svZAyMcBiQ8-35">
          <mxGeometry x="60" y="-10" width="70" height="30" as="geometry" />
        </mxCell>
      </root>
    </mxGraphModel>
  </diagram>
</mxfile>
